<svg width="21" height="22" viewBox="0 0 21 22" fill="none" xmlns="http://www.w3.org/2000/svg">
<path d="M13.273 11.2803L20.695 3.91013C21.084 3.52384 21.084 2.89228 20.695 2.50599L19.336 1.15647C18.947 0.770189 18.311 0.770189 17.922 1.15647L10.5 8.52669L3.07799 1.15647C2.68899 0.770189 2.05299 0.770189 1.66399 1.15647L0.304995 2.50599C-0.0840054 2.89228 -0.0840054 3.52384 0.304995 3.91013L7.72699 11.2803L0.305995 18.6506C-0.0830054 19.0369 -0.0830054 19.6684 0.305995 20.0547L1.66499 21.4042C2.05399 21.7905 2.68999 21.7905 3.07899 21.4042L10.501 14.034L17.923 21.4042C18.312 21.7905 18.948 21.7905 19.337 21.4042L20.696 20.0547C21.085 19.6684 21.085 19.0369 20.696 18.6506L13.273 11.2803Z" fill="#EE3643"/>
</svg>
